<?xml version="1.0" standalone="no"?>
<!DOCTYPE svg PUBLIC "-//W3C//DTD SVG 20010904//EN"
 "http://www.w3.org/TR/2001/REC-SVG-20010904/DTD/svg10.dtd">
<svg version="1.0" xmlns="http://www.w3.org/2000/svg"
 width="296.000000pt" height="297.000000pt" viewBox="0 0 296.000000 297.000000"
 preserveAspectRatio="xMidYMid meet">

<g transform="translate(0.000000,297.000000) scale(0.100000,-0.100000)"
fill="#000000" stroke="none">
<path d="M1276 2899 c-221 -29 -469 -130 -647 -264 -288 -217 -479 -515 -555
-865 -26 -120 -27 -429 -1 -550 69 -322 225 -592 460 -798 568 -495 1405 -464
1932 72 206 210 328 443 386 738 18 89 20 128 15 293 -5 197 -14 253 -61 404
-126 397 -438 729 -831 885 -209 83 -468 114 -698 85z m429 -130 c525 -101
928 -509 1032 -1044 21 -110 23 -346 4 -455 -44 -249 -164 -487 -340 -673
-255 -267 -577 -408 -936 -408 -351 0 -663 129 -911 376 -199 198 -323 437
-370 711 -24 143 -15 392 20 530 59 237 187 457 363 625 184 176 392 285 643
338 135 28 352 28 495 0z"/>
<path d="M1305 2710 c-446 -63 -815 -357 -984 -782 -53 -134 -75 -264 -76
-438 0 -176 15 -265 72 -420 120 -334 394 -610 724 -731 261 -96 542 -102 791
-19 447 150 764 524 835 985 21 141 13 346 -21 481 -114 459 -481 812 -946
909 -89 19 -311 27 -395 15z m352 -125 c421 -80 761 -398 875 -818 20 -71 23
-107 23 -272 0 -177 -2 -197 -28 -289 -219 -788 -1139 -1085 -1768 -570 -190
155 -327 387 -381 644 -29 137 -22 354 16 495 112 421 465 742 895 815 81 14
285 11 368 -5z"/>
<path d="M1442 2182 c-72 -66 -74 -68 -70 -111 l3 -44 51 47 c29 25 55 46 58
46 3 0 6 -76 6 -170 l0 -170 35 0 35 0 0 170 c0 94 3 170 7 170 4 0 30 -22 58
-50 l51 -50 -1 46 c-1 44 -4 49 -76 115 -41 37 -76 68 -79 69 -3 0 -38 -30
-78 -68z"/>
<path d="M767 1942 c-39 -42 -18 -65 78 -87 l70 -16 39 -137 c147 -517 139
-482 122 -527 -20 -51 -20 -78 0 -116 29 -57 46 -59 457 -59 350 0 375 1 390
18 19 21 21 31 7 52 -8 13 -66 16 -392 20 -379 5 -383 5 -386 26 -2 11 3 25
10 31 7 6 184 29 393 52 208 23 384 46 391 52 6 5 42 117 80 249 l68 240 -24
25 c-21 22 -32 25 -92 25 l-68 0 0 -45 c0 -45 0 -45 35 -45 21 0 35 -5 35 -12
0 -13 -98 -360 -102 -363 -11 -8 -693 -74 -699 -68 -12 12 -128 426 -123 435
3 4 21 8 40 8 34 0 34 0 34 45 l0 44 -56 3 -57 3 -14 50 c-8 28 -19 55 -25 62
-7 8 -168 53 -192 53 -2 0 -10 -8 -19 -18z"/>
<path d="M1200 1650 l0 -250 50 0 49 0 3 152 3 152 86 -149 87 -150 38 0 38 0
85 145 c98 165 89 169 93 -40 l3 -115 48 -3 47 -3 0 256 0 255 -44 0 -43 0
-101 -172 c-56 -95 -107 -181 -115 -192 -12 -17 -23 -2 -126 173 l-113 191
-44 0 -44 0 0 -250z"/>
<path d="M1215 969 c-38 -22 -55 -53 -55 -99 0 -89 84 -138 160 -93 86 51 55
187 -45 199 -22 2 -49 -1 -60 -7z m85 -98 c0 -28 -28 -47 -48 -34 -24 15 -27
44 -7 59 22 17 55 1 55 -25z"/>
<path d="M1735 971 c-35 -15 -57 -49 -62 -95 -5 -42 -3 -48 30 -81 45 -45 99
-49 146 -9 94 79 1 231 -114 185z m74 -85 c9 -11 10 -20 1 -36 -13 -25 -47
-24 -63 2 -22 34 36 66 62 34z"/>
</g>
</svg>
